<svg id="visual" viewBox="0 0 900 600" width="900" height="600" xmlns="http://www.w3.org/2000/svg" xmlns:xlink="http://www.w3.org/1999/xlink" version="1.1"><rect x="0" y="0" width="900" height="600" fill="#032d43"></rect><path d="M0 165L60 165L60 112L120 112L120 178L180 178L180 148L240 148L240 130L300 130L300 157L360 157L360 101L420 101L420 167L480 167L480 205L540 205L540 121L600 121L600 185L660 185L660 96L720 96L720 192L780 192L780 114L840 114L840 128L900 128" fill="none" stroke-linecap="square" stroke-linejoin="miter" stroke="#4FACF7" stroke-width="40"></path></svg>